<?xml version="1.0" encoding="UTF-8"?>
<svg xmlns="http://www.w3.org/2000/svg" width="1310" height="507" viewBox="0 0 1310 507"><rect width="1310" height="507" fill="#ffffff"></rect><g transform="translate(48 48)"><g font-family="&#x27;Helvetica Neue&#x27;, Helvetica, Arial, &#x27;Segoe UI&#x27;, sans-serif"><g transform="translate(0 -31)"><g><g><g transform="translate(914 55) rotate(0 130 133.5)" stroke-linejoin="round"><g><rect x="0" y="0" width="260" height="267" rx="3" fill="#ffffff" stroke="#000000" stroke-width="2.2"></rect><rect x="4" y="4" width="252" height="259" rx="2" fill="none" stroke="#000000" stroke-width="0.8" stroke-dasharray="2 4"></rect><text x="10" y="16" font-size="13" font-weight="500" text-anchor="start" dominant-baseline="central" fill="#000000" stroke="none" font-family="&#x27;Helvetica Neue&#x27;, Helvetica, Arial, sans-serif">Montagehalle Nord</text><text x="10" y="30" font-size="10" font-weight="400" text-anchor="start" dominant-baseline="central" fill="#444444" stroke="none" font-family="&#x27;Helvetica Neue&#x27;, Helvetica, Arial, sans-serif">Produktionshalle</text><text x="10" y="254" font-size="10" font-weight="400" text-anchor="start" dominant-baseline="central" fill="#444444" stroke="none" font-family="&#x27;Helvetica Neue&#x27;, Helvetica, Arial, sans-serif">1.200 m² · 6,5 m</text></g></g></g><g><path d="M92 140L116 140" fill="none" stroke="#000000" stroke-width="2.4" stroke-linecap="round" stroke-linejoin="round"></path><path d="M164 140L188 140" fill="none" stroke="#000000" stroke-width="2.4" stroke-linecap="round" stroke-linejoin="round"></path><path d="M252 140L276 140" fill="none" stroke="#000000" stroke-width="2.4" stroke-linecap="round" stroke-linejoin="round"></path><path d="M386 140L410 140" fill="none" stroke="#000000" stroke-width="2.4" stroke-linecap="round" stroke-linejoin="round"></path><path d="M474 140L498 140" fill="none" stroke="#000000" stroke-width="2.4" stroke-linecap="round" stroke-linejoin="round"></path><path d="M562 140L586 140" fill="none" stroke="#000000" stroke-width="2.4" stroke-linecap="round" stroke-linejoin="round"></path><path d="M650 140L674 140" fill="none" stroke="#000000" stroke-width="2.4" stroke-linecap="round" stroke-linejoin="round"></path><path d="M722 140L746 140" fill="none" stroke="#000000" stroke-width="2.4" stroke-linecap="round" stroke-linejoin="round"></path><path d="M810 140L834 140" fill="none" stroke="#000000" stroke-width="2.4" stroke-linecap="round" stroke-linejoin="round"></path><path d="M890 140L902 140L902 140.44L914 140.44" fill="none" stroke="#000000" stroke-width="2.4" stroke-linecap="round" stroke-linejoin="round"></path><path d="M914 236.56L889 236.56L889 236L864 236" fill="none" stroke="#000000" stroke-width="2.4" stroke-linecap="round" stroke-linejoin="round"></path><path d="M800 236L764 236" fill="none" stroke="#000000" stroke-width="2.4" stroke-linecap="round" stroke-linejoin="round"></path><path d="M700 236L543 236L543 235.92L386 235.92" fill="none" stroke="#000000" stroke-width="2.4" stroke-linecap="round" stroke-linejoin="round"></path><path d="M276 235.92L252 235.92L252 236L228 236" fill="none" stroke="#000000" stroke-width="2.4" stroke-linecap="round" stroke-linejoin="round"></path><path d="M180 236L112 236" fill="none" stroke="#000000" stroke-width="2.4" stroke-linecap="round" stroke-linejoin="round"></path></g><g><g transform="translate(40 118) rotate(0 26 22)" stroke-linejoin="round"><g><path d="M0 44L0 6L31.2 6" fill="none" stroke="#000000" stroke-width="2.2"></path><path d="M3.46 6L7 12.12M-1 10.27L7 24.12M-1 22.27L7 36.12M-1 34.27L3.83 42.63" fill="none" stroke="#000000" stroke-width="0.8"></path><path d="M9.36 27.28L44 27.28" fill="none" stroke="#000000" stroke-width="1.6"></path><path d="M50 27.28L44 30.58L44 23.98Z" fill="#000000" stroke="none"></path><text x="28.6" y="17.28" font-size="10" font-weight="500" text-anchor="middle" dominant-baseline="central" fill="#000000" stroke="none" font-family="&#x27;Helvetica Neue&#x27;, Helvetica, Arial, sans-serif">AUL</text></g></g><g transform="translate(116 104) rotate(0 24 36)" stroke-linejoin="round"><g><rect x="0" y="14" width="48" height="44" fill="#ffffff" stroke="#000000" stroke-width="1.6"></rect><g><path d="M9.51 23.84L38.49 48.16" fill="none" stroke="#000000" stroke-width="2.2" stroke-linecap="round"></path><circle cx="24" cy="36" r="2" fill="#ffffff" stroke="#000000" stroke-width="0.8"></circle></g><path d="M24 14L24 14" fill="none" stroke="#000000" stroke-width="0.8"></path><g><circle cx="24" cy="8" r="7" fill="#ffffff" stroke="#000000" stroke-width="1.15"></circle><text x="24" y="8" font-size="9.1" font-weight="500" text-anchor="middle" dominant-baseline="central" fill="#000000" stroke="none" font-family="&#x27;Helvetica Neue&#x27;, Helvetica, Arial, sans-serif">M</text></g></g></g><g transform="translate(188 118) rotate(0 32 22)" stroke-linejoin="round"><g><rect x="0" y="0" width="64" height="44" rx="0" fill="#ffffff" stroke="#000000" stroke-width="1.6"></rect><path d="M32 0L32 44" fill="none" stroke="#000000" stroke-width="1.15" stroke-dasharray="4 3"></path></g></g><g transform="translate(276 78.96) rotate(0 55 109)" stroke-linejoin="round"><g><rect x="0" y="0" width="110" height="218" rx="0" fill="#ffffff" stroke="#000000" stroke-width="1.6"></rect><path d="M0 0L110 218M0 218L110 0" fill="none" stroke="#000000" stroke-width="1.15"></path></g></g><g transform="translate(410 118) rotate(0 32 22)" stroke-linejoin="round"><g><rect x="0" y="0" width="64" height="44" rx="0" fill="#ffffff" stroke="#000000" stroke-width="1.6"></rect><path d="M4 40L60 4" fill="none" stroke="#000000" stroke-width="2.2" stroke-linecap="round"></path></g></g><g transform="translate(498 118) rotate(0 32 22)" stroke-linejoin="round"><g><rect x="0" y="0" width="64" height="44" rx="0" fill="#ffffff" stroke="#000000" stroke-width="1.6"></rect><path d="M4 4L60 40" fill="none" stroke="#000000" stroke-width="2.2" stroke-linecap="round"></path></g></g><g transform="translate(586 118) rotate(0 32 22)" stroke-linejoin="round"><g><rect x="0" y="0" width="64" height="44" rx="0" fill="#ffffff" stroke="#000000" stroke-width="1.6"></rect><path d="M21.76 39L21.76 13.2" fill="none" stroke="#000000" stroke-width="2.2" stroke-linecap="round"></path><path d="M21.76 18.48q6 -7 12 0M21.76 27.28q6 -7 12 0M35.76 22.88q6 -7 12 0" fill="none" stroke="#000000" stroke-width="0.8"></path><path d="M51.2 14.96L51.09 20.09L46.81 17.62Z" fill="#000000" stroke="none"></path></g></g><g transform="translate(674 116) rotate(0 24 24)" stroke-linejoin="round"><g><circle cx="24" cy="24" r="23.2" fill="#ffffff" stroke="#000000" stroke-width="1.6"></circle><path d="M11.94 8.69L11.94 39.31L42.56 24Z" fill="none" stroke="#000000" stroke-width="1.15"></path></g></g><g transform="translate(746 118) rotate(0 32 22)" stroke-linejoin="round"><g><rect x="0" y="0" width="64" height="44" rx="0" fill="#ffffff" stroke="#000000" stroke-width="1.6"></rect><g><circle cx="8.25" cy="7.25" r="1.2" fill="#000000" stroke="none"></circle><circle cx="14.75" cy="7.25" r="1.2" fill="#000000" stroke="none"></circle><circle cx="21.25" cy="7.25" r="1.2" fill="#000000" stroke="none"></circle><circle cx="27.75" cy="7.25" r="1.2" fill="#000000" stroke="none"></circle><circle cx="34.25" cy="7.25" r="1.2" fill="#000000" stroke="none"></circle><circle cx="40.75" cy="7.25" r="1.2" fill="#000000" stroke="none"></circle><circle cx="47.25" cy="7.25" r="1.2" fill="#000000" stroke="none"></circle><circle cx="53.75" cy="7.25" r="1.2" fill="#000000" stroke="none"></circle><circle cx="8.25" cy="13.75" r="1.2" fill="#000000" stroke="none"></circle><circle cx="14.75" cy="13.75" r="1.2" fill="#000000" stroke="none"></circle><circle cx="21.25" cy="13.75" r="1.2" fill="#000000" stroke="none"></circle><circle cx="27.75" cy="13.75" r="1.2" fill="#000000" stroke="none"></circle><circle cx="34.25" cy="13.75" r="1.2" fill="#000000" stroke="none"></circle><circle cx="40.75" cy="13.75" r="1.2" fill="#000000" stroke="none"></circle><circle cx="47.25" cy="13.75" r="1.2" fill="#000000" stroke="none"></circle><circle cx="53.75" cy="13.75" r="1.2" fill="#000000" stroke="none"></circle><circle cx="8.25" cy="20.25" r="1.2" fill="#000000" stroke="none"></circle><circle cx="14.75" cy="20.25" r="1.2" fill="#000000" stroke="none"></circle><circle cx="21.25" cy="20.25" r="1.2" fill="#000000" stroke="none"></circle><circle cx="27.75" cy="20.25" r="1.2" fill="#000000" stroke="none"></circle><circle cx="34.25" cy="20.25" r="1.2" fill="#000000" stroke="none"></circle><circle cx="40.75" cy="20.25" r="1.2" fill="#000000" stroke="none"></circle><circle cx="47.25" cy="20.25" r="1.2" fill="#000000" stroke="none"></circle><circle cx="53.75" cy="20.25" r="1.2" fill="#000000" stroke="none"></circle><circle cx="8.25" cy="26.75" r="1.2" fill="#000000" stroke="none"></circle><circle cx="14.75" cy="26.75" r="1.2" fill="#000000" stroke="none"></circle><circle cx="21.25" cy="26.75" r="1.2" fill="#000000" stroke="none"></circle><circle cx="27.75" cy="26.75" r="1.2" fill="#000000" stroke="none"></circle><circle cx="34.25" cy="26.75" r="1.2" fill="#000000" stroke="none"></circle><circle cx="40.75" cy="26.75" r="1.2" fill="#000000" stroke="none"></circle><circle cx="47.25" cy="26.75" r="1.2" fill="#000000" stroke="none"></circle><circle cx="53.75" cy="26.75" r="1.2" fill="#000000" stroke="none"></circle><circle cx="8.25" cy="33.25" r="1.2" fill="#000000" stroke="none"></circle><circle cx="14.75" cy="33.25" r="1.2" fill="#000000" stroke="none"></circle><circle cx="21.25" cy="33.25" r="1.2" fill="#000000" stroke="none"></circle><circle cx="27.75" cy="33.25" r="1.2" fill="#000000" stroke="none"></circle><circle cx="34.25" cy="33.25" r="1.2" fill="#000000" stroke="none"></circle><circle cx="40.75" cy="33.25" r="1.2" fill="#000000" stroke="none"></circle><circle cx="47.25" cy="33.25" r="1.2" fill="#000000" stroke="none"></circle><circle cx="53.75" cy="33.25" r="1.2" fill="#000000" stroke="none"></circle><circle cx="8.25" cy="39.75" r="1.2" fill="#000000" stroke="none"></circle><circle cx="14.75" cy="39.75" r="1.2" fill="#000000" stroke="none"></circle><circle cx="21.25" cy="39.75" r="1.2" fill="#000000" stroke="none"></circle><circle cx="27.75" cy="39.75" r="1.2" fill="#000000" stroke="none"></circle><circle cx="34.25" cy="39.75" r="1.2" fill="#000000" stroke="none"></circle><circle cx="40.75" cy="39.75" r="1.2" fill="#000000" stroke="none"></circle><circle cx="47.25" cy="39.75" r="1.2" fill="#000000" stroke="none"></circle><circle cx="53.75" cy="39.75" r="1.2" fill="#000000" stroke="none"></circle></g></g></g><g transform="translate(834 112) rotate(0 28 28)" stroke-linejoin="round"><g><rect x="0" y="6" width="56" height="44" fill="#ffffff" stroke="#000000" stroke-width="2.2"></rect><rect x="0" y="6" width="7" height="44" fill="none" stroke="#000000" stroke-width="0.8"></rect><rect x="49" y="6" width="7" height="44" fill="none" stroke="#000000" stroke-width="0.8"></rect><path d="M3.46 6L7 12.12M0 10L7 22.12M0 20L7 32.12M0 30L7 42.12M0 40L4.96 48.58M0 50L0 50M55.43 6L56 6.99M49.65 6L56 16.99M49 14.87L52.59 21.08" fill="none" stroke="#000000" stroke-width="0.8"></path><g><path d="M14.52 16.69L41.48 39.31" fill="none" stroke="#000000" stroke-width="2.2" stroke-linecap="round"></path><circle cx="28" cy="28" r="2" fill="#ffffff" stroke="#000000" stroke-width="0.8"></circle></g><path d="M28 6L28 9" fill="none" stroke="#000000" stroke-width="0.8"></path><rect x="23" y="2" width="10" height="8" fill="#000000" stroke="none"></rect></g></g><g transform="translate(800 214) rotate(0 32 22)" stroke-linejoin="round"><g><rect x="0" y="0" width="64" height="44" rx="0" fill="#ffffff" stroke="#000000" stroke-width="1.6"></rect><g><circle cx="8.25" cy="7.25" r="1.2" fill="#000000" stroke="none"></circle><circle cx="14.75" cy="7.25" r="1.2" fill="#000000" stroke="none"></circle><circle cx="21.25" cy="7.25" r="1.2" fill="#000000" stroke="none"></circle><circle cx="27.75" cy="7.25" r="1.2" fill="#000000" stroke="none"></circle><circle cx="34.25" cy="7.25" r="1.2" fill="#000000" stroke="none"></circle><circle cx="40.75" cy="7.25" r="1.2" fill="#000000" stroke="none"></circle><circle cx="47.25" cy="7.25" r="1.2" fill="#000000" stroke="none"></circle><circle cx="53.75" cy="7.25" r="1.2" fill="#000000" stroke="none"></circle><circle cx="8.25" cy="13.75" r="1.2" fill="#000000" stroke="none"></circle><circle cx="14.75" cy="13.75" r="1.2" fill="#000000" stroke="none"></circle><circle cx="21.25" cy="13.75" r="1.2" fill="#000000" stroke="none"></circle><circle cx="27.75" cy="13.75" r="1.2" fill="#000000" stroke="none"></circle><circle cx="34.25" cy="13.75" r="1.2" fill="#000000" stroke="none"></circle><circle cx="40.75" cy="13.75" r="1.2" fill="#000000" stroke="none"></circle><circle cx="47.25" cy="13.75" r="1.2" fill="#000000" stroke="none"></circle><circle cx="53.75" cy="13.75" r="1.2" fill="#000000" stroke="none"></circle><circle cx="8.25" cy="20.25" r="1.2" fill="#000000" stroke="none"></circle><circle cx="14.75" cy="20.25" r="1.2" fill="#000000" stroke="none"></circle><circle cx="21.25" cy="20.25" r="1.2" fill="#000000" stroke="none"></circle><circle cx="27.75" cy="20.25" r="1.2" fill="#000000" stroke="none"></circle><circle cx="34.25" cy="20.25" r="1.2" fill="#000000" stroke="none"></circle><circle cx="40.75" cy="20.25" r="1.2" fill="#000000" stroke="none"></circle><circle cx="47.25" cy="20.25" r="1.2" fill="#000000" stroke="none"></circle><circle cx="53.75" cy="20.25" r="1.2" fill="#000000" stroke="none"></circle><circle cx="8.25" cy="26.75" r="1.2" fill="#000000" stroke="none"></circle><circle cx="14.75" cy="26.75" r="1.2" fill="#000000" stroke="none"></circle><circle cx="21.25" cy="26.75" r="1.2" fill="#000000" stroke="none"></circle><circle cx="27.75" cy="26.75" r="1.2" fill="#000000" stroke="none"></circle><circle cx="34.25" cy="26.75" r="1.2" fill="#000000" stroke="none"></circle><circle cx="40.75" cy="26.75" r="1.2" fill="#000000" stroke="none"></circle><circle cx="47.25" cy="26.75" r="1.2" fill="#000000" stroke="none"></circle><circle cx="53.75" cy="26.75" r="1.2" fill="#000000" stroke="none"></circle><circle cx="8.25" cy="33.25" r="1.2" fill="#000000" stroke="none"></circle><circle cx="14.75" cy="33.25" r="1.2" fill="#000000" stroke="none"></circle><circle cx="21.25" cy="33.25" r="1.2" fill="#000000" stroke="none"></circle><circle cx="27.75" cy="33.25" r="1.2" fill="#000000" stroke="none"></circle><circle cx="34.25" cy="33.25" r="1.2" fill="#000000" stroke="none"></circle><circle cx="40.75" cy="33.25" r="1.2" fill="#000000" stroke="none"></circle><circle cx="47.25" cy="33.25" r="1.2" fill="#000000" stroke="none"></circle><circle cx="53.75" cy="33.25" r="1.2" fill="#000000" stroke="none"></circle><circle cx="8.25" cy="39.75" r="1.2" fill="#000000" stroke="none"></circle><circle cx="14.75" cy="39.75" r="1.2" fill="#000000" stroke="none"></circle><circle cx="21.25" cy="39.75" r="1.2" fill="#000000" stroke="none"></circle><circle cx="27.75" cy="39.75" r="1.2" fill="#000000" stroke="none"></circle><circle cx="34.25" cy="39.75" r="1.2" fill="#000000" stroke="none"></circle><circle cx="40.75" cy="39.75" r="1.2" fill="#000000" stroke="none"></circle><circle cx="47.25" cy="39.75" r="1.2" fill="#000000" stroke="none"></circle><circle cx="53.75" cy="39.75" r="1.2" fill="#000000" stroke="none"></circle></g></g></g><g transform="translate(700 214) rotate(0 32 22)" stroke-linejoin="round"><g><rect x="0" y="0" width="64" height="44" rx="0" fill="#ffffff" stroke="#000000" stroke-width="1.6"></rect><path d="M32 0L32 44" fill="none" stroke="#000000" stroke-width="1.15" stroke-dasharray="4 3"></path></g></g><g transform="translate(180 212) rotate(0 24 24)" stroke-linejoin="round"><g><circle cx="24" cy="24" r="23.2" fill="#ffffff" stroke="#000000" stroke-width="1.6"></circle><path d="M11.94 8.69L11.94 39.31L42.56 24Z" fill="none" stroke="#000000" stroke-width="1.15"></path></g></g><g transform="translate(60 214) rotate(0 26 22) translate(52 0) scale(-1 1)" stroke-linejoin="round"><g><path d="M52 44L52 6L20.8 6" fill="none" stroke="#000000" stroke-width="2.2"></path><path d="M51.96 6L53 7.8M45.03 6L50.59 15.63M45 17.94L45.4 18.63" fill="none" stroke="#000000" stroke-width="0.8"></path><path d="M8 27.28L42.64 27.28" fill="none" stroke="#000000" stroke-width="1.6"></path><path d="M45.76 27.28L39.76 30.58L39.76 23.98Z" fill="#000000" stroke="none"></path><text transform="translate(23.4 17.28) scale(-1 1) rotate(0) translate(-23.4 -17.28)" x="23.4" y="17.28" font-size="10" font-weight="500" text-anchor="middle" dominant-baseline="central" fill="#000000" stroke="none" font-family="&#x27;Helvetica Neue&#x27;, Helvetica, Arial, sans-serif">FOL</text></g></g><g transform="translate(204 72) rotate(0 18 25)" stroke-linejoin="round"><g><path d="M18 33L18 50" fill="none" stroke="#000000" stroke-width="0.8" stroke-dasharray="4 3"></path><circle cx="18" cy="18" r="15" fill="#ffffff" stroke="#000000" stroke-width="1.6"></circle><path d="M3 18L33 18" fill="none" stroke="#000000" stroke-width="1.15"></path><text x="18" y="11.1" font-size="10" font-weight="500" text-anchor="middle" dominant-baseline="central" fill="#000000" stroke="none" font-family="&#x27;Helvetica Neue&#x27;, Helvetica, Arial, sans-serif">PDS</text><text x="18" y="25.5" font-size="10" font-weight="400" text-anchor="middle" dominant-baseline="central" fill="#000000" stroke="none" font-family="&#x27;Helvetica Neue&#x27;, Helvetica, Arial, sans-serif">01</text></g></g><g transform="translate(466 72) rotate(0 18 25)" stroke-linejoin="round"><g><path d="M18 33L18 50" fill="none" stroke="#000000" stroke-width="0.8" stroke-dasharray="4 3"></path><circle cx="18" cy="18" r="15" fill="#ffffff" stroke="#000000" stroke-width="1.6"></circle><path d="M3 18L33 18" fill="none" stroke="#000000" stroke-width="1.15"></path><text x="18" y="11.1" font-size="10" font-weight="500" text-anchor="middle" dominant-baseline="central" fill="#000000" stroke="none" font-family="&#x27;Helvetica Neue&#x27;, Helvetica, Arial, sans-serif">TIC</text><text x="18" y="25.5" font-size="10" font-weight="400" text-anchor="middle" dominant-baseline="central" fill="#000000" stroke="none" font-family="&#x27;Helvetica Neue&#x27;, Helvetica, Arial, sans-serif">01</text></g></g></g><g><g font-family="&#x27;Helvetica Neue&#x27;, Helvetica, Arial, &#x27;Segoe UI&#x27;, sans-serif" text-anchor="end" stroke="none"><text x="1165" y="71" font-size="10.5" font-weight="600" fill="#000000">RAUM-01</text><text x="1165" y="82.5" font-size="9.5" fill="#444444">ZUL 5.400 m³/h</text><text x="1165" y="94" font-size="9.5" fill="#444444">ABL 5.100 m³/h</text><text x="1165" y="105.5" font-size="9.5" fill="#444444">LW 0,7 1/h</text></g><g font-family="&#x27;Helvetica Neue&#x27;, Helvetica, Arial, &#x27;Segoe UI&#x27;, sans-serif" text-anchor="middle" stroke="none"><text x="66" y="175" font-size="10.5" font-weight="600" fill="#000000">AUL-01</text><text x="66" y="186.5" font-size="9.5" fill="#444444">V̇ 5.400 m³/h</text></g><g font-family="&#x27;Helvetica Neue&#x27;, Helvetica, Arial, &#x27;Segoe UI&#x27;, sans-serif" text-anchor="middle" stroke="none"><text x="140" y="189" font-size="10.5" font-weight="600" fill="#000000">KL-01</text></g><g font-family="&#x27;Helvetica Neue&#x27;, Helvetica, Arial, &#x27;Segoe UI&#x27;, sans-serif" text-anchor="middle" stroke="none"><text x="220" y="175" font-size="10.5" font-weight="600" fill="#000000">FIL-01</text><text x="220" y="186.5" font-size="9.5" fill="#444444">Kl. ISO ePM1 60 %</text></g><g font-family="&#x27;Helvetica Neue&#x27;, Helvetica, Arial, &#x27;Segoe UI&#x27;, sans-serif" text-anchor="middle" stroke="none"><text x="331" y="309.96" font-size="10.5" font-weight="600" fill="#000000">WRG-01</text><text x="331" y="321.46" font-size="9.5" fill="#444444">η 78 %</text></g><g font-family="&#x27;Helvetica Neue&#x27;, Helvetica, Arial, &#x27;Segoe UI&#x27;, sans-serif" text-anchor="middle" stroke="none"><text x="442" y="175" font-size="10.5" font-weight="600" fill="#000000">ERH-01</text><text x="442" y="186.5" font-size="9.5" fill="#444444">Q 42 kW</text><text x="442" y="198" font-size="9.5" fill="#444444">tA 20 °C</text></g><g font-family="&#x27;Helvetica Neue&#x27;, Helvetica, Arial, &#x27;Segoe UI&#x27;, sans-serif" text-anchor="middle" stroke="none"><text x="530" y="175" font-size="10.5" font-weight="600" fill="#000000">KUE-01</text><text x="530" y="186.5" font-size="9.5" fill="#444444">Q 38 kW</text><text x="530" y="198" font-size="9.5" fill="#444444">tA 16 °C</text></g><g font-family="&#x27;Helvetica Neue&#x27;, Helvetica, Arial, &#x27;Segoe UI&#x27;, sans-serif" text-anchor="middle" stroke="none"><text x="618" y="175" font-size="10.5" font-weight="600" fill="#000000">BEF-01</text><text x="618" y="186.5" font-size="9.5" fill="#444444">ṁD 24 kg/h</text><text x="618" y="198" font-size="9.5" fill="#444444">rF 40 %</text></g><g font-family="&#x27;Helvetica Neue&#x27;, Helvetica, Arial, &#x27;Segoe UI&#x27;, sans-serif" text-anchor="middle" stroke="none"><text x="698" y="177" font-size="10.5" font-weight="600" fill="#000000">VENT-01</text><text x="698" y="188.5" font-size="9.5" fill="#444444">V̇ 5.400 m³/h</text><text x="698" y="200" font-size="9.5" fill="#444444">dp 750 Pa</text></g><g font-family="&#x27;Helvetica Neue&#x27;, Helvetica, Arial, &#x27;Segoe UI&#x27;, sans-serif" text-anchor="middle" stroke="none"><text x="778" y="175" font-size="10.5" font-weight="600" fill="#000000">SD-01</text><text x="778" y="186.5" font-size="9.5" fill="#444444">L 1.000 mm</text><text x="778" y="198" font-size="9.5" fill="#444444">D 22 dB</text></g><g font-family="&#x27;Helvetica Neue&#x27;, Helvetica, Arial, &#x27;Segoe UI&#x27;, sans-serif" text-anchor="middle" stroke="none"><text x="862" y="181" font-size="10.5" font-weight="600" fill="#000000">BSK-01</text><text x="862" y="192.5" font-size="9.5" fill="#444444">FW EI 90-S</text></g><g font-family="&#x27;Helvetica Neue&#x27;, Helvetica, Arial, &#x27;Segoe UI&#x27;, sans-serif" text-anchor="middle" stroke="none"><text x="832" y="271" font-size="10.5" font-weight="600" fill="#000000">SD-02</text><text x="832" y="282.5" font-size="9.5" fill="#444444">L 1.000 mm</text><text x="832" y="294" font-size="9.5" fill="#444444">D 20 dB</text></g><g font-family="&#x27;Helvetica Neue&#x27;, Helvetica, Arial, &#x27;Segoe UI&#x27;, sans-serif" text-anchor="middle" stroke="none"><text x="732" y="271" font-size="10.5" font-weight="600" fill="#000000">FIL-02</text><text x="732" y="282.5" font-size="9.5" fill="#444444">Kl. ISO ePM10 60 %</text></g><g font-family="&#x27;Helvetica Neue&#x27;, Helvetica, Arial, &#x27;Segoe UI&#x27;, sans-serif" text-anchor="middle" stroke="none"><text x="204" y="273" font-size="10.5" font-weight="600" fill="#000000">VENT-02</text><text x="204" y="284.5" font-size="9.5" fill="#444444">V̇ 5.100 m³/h</text><text x="204" y="296" font-size="9.5" fill="#444444">dp 620 Pa</text></g><g font-family="&#x27;Helvetica Neue&#x27;, Helvetica, Arial, &#x27;Segoe UI&#x27;, sans-serif" text-anchor="middle" stroke="none"><text x="86" y="271" font-size="10.5" font-weight="600" fill="#000000">FOL-01</text><text x="86" y="282.5" font-size="9.5" fill="#444444">V̇ 5.100 m³/h</text></g><g font-family="&#x27;Helvetica Neue&#x27;, Helvetica, Arial, &#x27;Segoe UI&#x27;, sans-serif" text-anchor="middle" stroke="none"><text x="222" y="54.5" font-size="10.5" font-weight="600" fill="#000000">PDS-01</text><text x="222" y="66" font-size="9.5" fill="#444444">Δp 250 Pa</text></g><g font-family="&#x27;Helvetica Neue&#x27;, Helvetica, Arial, &#x27;Segoe UI&#x27;, sans-serif" text-anchor="middle" stroke="none"><text x="484" y="54.5" font-size="10.5" font-weight="600" fill="#000000">TIC-01</text><text x="484" y="66" font-size="9.5" fill="#444444">w 20 °C</text></g><g font-family="&#x27;Helvetica Neue&#x27;, Helvetica, Arial, &#x27;Segoe UI&#x27;, sans-serif" text-anchor="middle" stroke="none"><text x="543" y="216.46" font-size="9.5" font-weight="600" fill="#000000">ABL</text><text x="543" y="227.96" font-size="9.5" font-weight="400" fill="#444444">V̇ 5.100 m³/h</text></g></g></g></g><g transform="translate(0 393)"><line x1="0" y1="0" x2="1214" y2="0" stroke="#000000" stroke-width="0.8"></line><text x="0" y="18" font-size="13" font-weight="600" fill="#000000">Beispiel — Montagehalle Nord</text><text x="0" y="33" font-size="10" fill="#444444">RLT 01 · Beispielschema zum Ausprobieren</text><text x="1214" y="18" font-size="10" text-anchor="end" fill="#444444"></text><text x="1214" y="33" font-size="10" text-anchor="end" fill="#444444">20.08.2026</text><text x="1214" y="47" font-size="9" text-anchor="end" fill="#444444">Symbolik nach DIN EN 12792 · DIN EN ISO 10628 · VDI 3814</text></g></g></g></svg>